<?xml version="1.0" encoding="UTF-8"?><svg id="Layer_1" xmlns="http://www.w3.org/2000/svg" viewBox="0 0 662 662"><defs><style>.cls-1{fill:#fff;}</style></defs><g><path class="cls-1" d="m331,632c-80.4,0-155.99-31.31-212.84-88.16-56.85-56.85-88.16-132.44-88.16-212.84s31.31-155.99,88.16-212.84C175.01,61.31,250.6,30,331,30s155.99,31.31,212.84,88.16c56.85,56.85,88.16,132.44,88.16,212.84s-31.31,155.99-88.16,212.84c-56.85,56.85-132.44,88.16-212.84,88.16Z"/><path class="cls-1" d="m331,40c39.29,0,77.4,7.69,113.26,22.86,34.65,14.66,65.77,35.64,92.5,62.37,26.73,26.73,47.72,57.85,62.37,92.5,15.17,35.86,22.86,73.97,22.86,113.26s-7.69,77.4-22.86,113.26c-14.66,34.65-35.64,65.77-62.37,92.5-26.73,26.73-57.85,47.72-92.5,62.37-35.86,15.17-73.97,22.86-113.26,22.86s-77.4-7.69-113.26-22.86c-34.65-14.66-65.77-35.64-92.5-62.37-26.73-26.73-47.72-57.85-62.37-92.5-15.17-35.86-22.86-73.97-22.86-113.26s7.69-77.4,22.86-113.26c14.66-34.65,35.64-65.77,62.37-92.5,26.73-26.73,57.85-47.72,92.5-62.37,35.86-15.17,73.97-22.86,113.26-22.86m0-20C159.24,20,20,159.24,20,331s139.24,311,311,311,311-139.24,311-311S502.76,20,331,20h0Z"/></g><g><path d="m134.7,459.01c-17.32,0-37.97-10.01-37.97-57.68,0-36.79,14.77-73.4,42.71-105.89,20.99-24.4,41.73-37.77,42.6-38.33l.59-.38.68-.2c.47-.14,4.71-1.37,8.14-1.37,5.45,0,7.06,3.21,7.49,4.58,1.49,4.71-1.4,9.66-21.34,23.67-34.35,24.14-52.87,89.5-52.87,110.91,0,17.66,5.35,30,13,30,5.06,0,19.55-14.93,29.93-28.91l153-222.33-80.92,32.82c-2.35,1.11-26.95,12.42-53.02,12.42-34.33,0-37-22.96-37-30,0-13.85,14.22-25,26-25,4.89,0,12.21,1.83,20.69,3.96,8.54,2.14,18.21,4.56,25.64,5.06.28.02.57.03.88.03,12.34,0,45.22-12.74,56.84-17.64,3.76-1.64,94.06-40.78,156.83-40.78,3.65,0,7.19.14,10.51.4,3.06.25,6.06.37,8.92.37,47.83,0,52.53-34.49,52.71-35.96l1.02-8.49,6.9,5.03,18.06,13.24-1.34,3.55c-22.27,59.09-46.09,62.48-79.06,67.17-7.43,1.06-15.11,2.15-23.58,3.95-26.38,5.61-41.86,15.49-50.06,22.53l29.96-1.43h.18c.49.02,12.03.35,23.66,6.3,11.05,5.65,24.22,17.48,24.22,41.7,0,35.78-37.57,54.41-54.54,61.01,9.17,9.4,25.04,29.2,25.04,53.66,0,22.94-9.06,42.18-14.84,52.12,6.34.49,12.51.74,18.42.74h.01c58.61,0,77.72-24.26,77.9-24.51l.21-.27.26-.27c17.22-17.22,44.54-49.69,44.54-63.46,0-21.4,11.85-29,22-29,4.3,0,9.16,2.4,12.69,6.27,3.96,4.34,5.84,10.09,5.29,16.18-.97,10.62-2.06,22.66-16,25.45-1.68.33-3.25.5-4.68.5h0c-1.3,0-2.46-.14-3.51-.38-4.62,15.03-17.91,47.93-50.75,72.95-43.79,33.37-68.64,39.02-125.94,40.02-2.14.04-4.24.06-6.3.06-53.31,0-79.79-12.01-80.89-12.52l-.93-.43-.68-.76c-.15-.16-17.44-18.34-60.28-18.34s-69.83,32.8-70.1,33.13l-.48.59-.64.43c-.82.55-20.37,13.53-39.82,13.53Zm204.24-65.68c.94.21,3.11.61,5.9.61,11.79,0,26.59-6.68,30.2-38.51,1.04-9.2-1.13-16.67-6.63-22.83-14.79-16.55-48.26-18.34-61.96-18.34-11.63,0-21.44,1.26-24.76,2.44-6.86,2.45-26.08,31.27-42.78,60.76,14.06-3.3,37.43-8.47,46.1-8.47,12.39,0,45.77,19.46,53.94,24.33Zm-28.5-116.48c19.82-.55,45.3-2.46,49.56-2.79,4.29-1.49,34.61-12.76,37.04-34.62.29-2.64-.3-4.68-1.86-6.42-4.31-4.81-15.61-7.46-31.83-7.46-8.36,0-15.88.72-19.45,1.12l-33.45,50.17Z"/><path class="cls-1" d="m513.73,79.33l15,11c-26,69-52,58-99,68s-61,33-61,33l42-2s43,1,43,43-59,59-59,59c0,0,29.5,24,29.5,55.66s-18.5,56.34-18.5,56.34c9.82,1.05,18.83,1.52,27.09,1.52,62.4,0,81.91-26.52,81.91-26.52,0,0,46-46,46-67s12-24,17-24,14,6,13,17-2,19-12,21c-1.43.29-2.65.41-3.7.41-6.3,0-6.3-4.41-6.3-4.41,0,0-9,46-51,78-42,32-66,38-123,39-2.11.04-4.18.05-6.21.05-52.82,0-78.79-12.05-78.79-12.05,0,0-18-20-64-20s-74,35-74,35c0,0-18.88,12.68-37.03,12.68-16.8,0-32.97-10.86-32.97-52.68,0-87,83-140,83-140,0,0,3.92-1.16,6.72-1.16,4.56,0,6.18,3.07-16.72,19.16-37,26-55,94-55,115s7,35,18,35,34-31,34-31l162.5-236.14-96.5,39.14s-25,12-51,12-32-14-32-25,12-20,21-20,31,8,46,9c.39.03.79.04,1.21.04,16.07,0,58.79-18.04,58.79-18.04,0,0,92.44-40.39,154.89-40.39,3.47,0,6.85.12,10.11.39s6.37.39,9.32.39c53.18,0,57.68-40.39,57.68-40.39m-212.73,202.67c22,0,60-3,60-3,0,0,38-12,41-39,1.8-16.2-20.52-19.44-38.66-19.44-12.09,0-22.34,1.44-22.34,1.44l-40,60m-72,103s44-11,56-11,52,24,52,24c0,0,3.18.95,7.83.95,11.2,0,30.93-5.49,35.17-42.95s-41.97-46.74-73.56-46.74c-12.37,0-22.5,1.33-26.44,2.74-14,5-51,73-51,73M505.39,60.82l-1.6,17.36c-.1.67-1.37,8.45-7.43,15.93-8.38,10.36-21.94,15.61-40.32,15.61-2.73,0-5.59-.12-8.52-.36-3.46-.28-7.13-.42-10.91-.42-63.51,0-154.21,39.18-158.84,41.2-15.81,6.67-44.64,17.23-54.84,17.23-.2,0-.39,0-.55-.02-6.98-.47-16.43-2.83-24.76-4.92-8.8-2.2-16.4-4.11-21.9-4.11-14.34,0-31,13.1-31,30s11.03,35,42,35c26.67,0,51.8-11.33,55.02-12.84l65.34-26.5-143.49,208.51c-.72.95-5.38,7.11-11.1,13.46-9.49,10.51-14.06,12.89-15.15,13.34-1.66-.32-3.1-2.68-3.84-4.13-2.44-4.78-3.78-12.18-3.78-20.83,0-9.48,4.53-30.89,12.91-51.92,10.12-25.37,23.56-44.86,37.84-54.9,7.96-5.59,13.59-10.03,17.21-13.58,2.29-2.24,8.39-8.21,6.02-15.69-.6-1.89-3.25-8.08-12.26-8.08-4.05,0-8.68,1.31-9.57,1.57l-1.35.4-1.19.76c-.9.57-22.24,14.33-43.7,39.28-12.67,14.73-22.78,30.36-30.06,46.45-9.2,20.33-13.86,41.42-13.86,62.7s4.02,37.46,12.28,48.14c7.36,9.51,17.97,14.54,30.69,14.54,20.95,0,41.73-13.79,42.6-14.37l1.27-.86.96-1.2c.05-.06,6.58-8.05,18.14-15.87,15.08-10.2,31.25-15.38,48.05-15.38,21.14,0,35.45,4.59,43.73,8.45,8.36,3.89,12.41,7.82,12.88,8.29l1.37,1.61,1.81.72c1.14.53,28.59,12.98,83,12.98,2.11,0,4.26-.02,6.39-.06,57.61-1.01,84.31-7.08,128.88-41.04,31.25-23.81,45.41-54.61,51.22-71.55h.02c1.76,0,3.67-.2,5.66-.6,7.86-1.57,13.42-5.89,16.54-12.84,2.22-4.95,2.86-10.42,3.46-17.06.68-7.51-1.65-14.62-6.57-20.01-4.45-4.87-10.73-7.9-16.39-7.9-10.03,0-27,7.16-27,34,0,1.59-1,10.77-20.66,34.94-11.05,13.59-22.3,24.88-22.42,24.99l-.65.65-.3.44c-.53.64-5.1,5.89-15.58,11.1-10.47,5.2-29.08,11.4-58.32,11.4-3.37,0-6.83-.08-10.36-.25,5.58-11.29,11.77-28.19,11.77-47.61,0-22.13-12.02-40.59-21.6-51.8,19.58-8.82,51.1-28.38,51.1-62.87,0-11.6-2.83-21.7-8.42-30.01-4.52-6.73-10.76-12.16-18.53-16.14-12.43-6.36-24.49-6.81-25.82-6.84h-.35s-.35,0-.35,0l-11.99.57c8.19-4.39,19.16-8.74,33.55-11.8,8.3-1.77,15.9-2.85,23.24-3.89,17.25-2.45,32.14-4.57,46.13-14.31,14.8-10.29,26.18-27.58,36.91-56.05l2.68-7.1-6.12-4.49-15-11-14.25-10.45h0Zm-158.65,170.59c3.89-.38,9.97-.85,16.59-.85,16.9,0,25.6,3,28.11,5.8.44.49.79,1.02.62,2.54-2,17.99-27.79,28.29-33.12,30.23-4.79.36-22.32,1.66-38.93,2.38l26.73-40.1h0Zm-63.22,89.95c2.18-.7,10.5-2.1,22.91-2.1,27.14,0,48.91,6.23,58.24,16.67,4.5,5.04,6.26,11.23,5.39,18.94-1.55,13.71-5.58,23.79-11.65,29.15-3.7,3.27-8.27,4.93-13.58,4.93-1.75,0-3.19-.19-4.09-.35-3.18-1.88-11.38-6.64-20.62-11.46-22.31-11.64-30.49-13.13-35.13-13.13-7.07,0-22.61,3.06-35.95,6.01,2.44-4.15,5.15-8.66,7.98-13.21,18.64-30.03,25.44-34.83,26.5-35.44h0Z"/></g><path d="m331,20c171.76,0,311,139.24,311,311s-139.24,311-311,311S20,502.76,20,331,159.24,20,331,20m0-20c-44.68,0-88.03,8.75-128.85,26.02-39.42,16.67-74.81,40.54-105.21,70.93-30.39,30.39-54.26,65.79-70.93,105.21C8.75,242.97,0,286.32,0,331s8.75,88.03,26.02,128.85c16.67,39.42,40.54,74.81,70.93,105.21,30.39,30.39,65.79,54.26,105.21,70.93,40.82,17.27,84.17,26.02,128.85,26.02s88.03-8.75,128.85-26.02c39.42-16.67,74.81-40.54,105.21-70.93,30.39-30.39,54.26-65.79,70.93-105.21,17.27-40.82,26.02-84.17,26.02-128.85s-8.75-88.03-26.02-128.85c-16.67-39.42-40.54-74.81-70.93-105.21s-65.79-54.26-105.21-70.93C419.03,8.75,375.68,0,331,0h0Z"/></svg>